<?xml version="1.0" standalone="no"?>
<!DOCTYPE svg PUBLIC "-//W3C//DTD SVG 20010904//EN"
 "http://www.w3.org/TR/2001/REC-SVG-20010904/DTD/svg10.dtd">
<svg version="1.0" xmlns="http://www.w3.org/2000/svg"
 width="150.000000pt" height="150.000000pt" viewBox="0 0 150.000000 150.000000"
 preserveAspectRatio="xMidYMid meet">
<metadata>
Created by potrace 1.11, written by Peter Selinger 2001-2013
</metadata>
<g transform="translate(0.000000,150.000000) scale(0.100000,-0.100000)"
fill="#000000" stroke="none">
<path d="M0 750 l0 -750 750 0 750 0 0 750 0 750 -750 0 -750 0 0 -750z m1490
0 l0 -740 -740 0 -740 0 0 740 0 740 740 0 740 0 0 -740z"/>
<path d="M802 1194 c-50 -34 -2 -111 53 -86 46 21 28 102 -22 102 -5 0 -19 -7
-31 -16z"/>
<path d="M580 945 l0 -35 105 0 105 0 0 -230 c0 -256 -6 -287 -59 -314 -34
-18 -100 -21 -149 -7 l-32 10 0 -39 0 -38 65 -7 c113 -13 189 20 233 100 15
26 17 72 20 313 l3 282 -145 0 -146 0 0 -35z"/>
</g>
</svg>
